<mxfile host="65bd71144e">
    <diagram id="EJ6dvWvoU64ozF4Sr17x" name="第 1 页">
        <mxGraphModel dx="838" dy="785" grid="1" gridSize="10" guides="1" tooltips="1" connect="1" arrows="1" fold="1" page="1" pageScale="1" pageWidth="850" pageHeight="1100" background="none" math="0" shadow="0">
            <root>
                <mxCell id="0"/>
                <mxCell id="1" parent="0"/>
                <mxCell id="3" value="&lt;font style=&quot;font-size: 22px;&quot;&gt;state 1&lt;br&gt;已下发&lt;br&gt;未接收&lt;br&gt;未处理&lt;/font&gt;" style="ellipse;whiteSpace=wrap;html=1;aspect=fixed;fillColor=none;" parent="1" vertex="1">
                    <mxGeometry x="320" y="90" width="140" height="140" as="geometry"/>
                </mxCell>
                <mxCell id="4" value="&lt;font style=&quot;font-size: 22px;&quot;&gt;state 2&lt;br&gt;已下发&lt;br&gt;已接收&lt;br&gt;未处理&lt;/font&gt;" style="ellipse;whiteSpace=wrap;html=1;aspect=fixed;fillColor=none;" parent="1" vertex="1">
                    <mxGeometry x="130" y="380" width="140" height="140" as="geometry"/>
                </mxCell>
                <mxCell id="5" value="&lt;font style=&quot;font-size: 22px;&quot;&gt;state 3&lt;br&gt;已下发&lt;br&gt;已接收&lt;br&gt;已处理&lt;/font&gt;" style="ellipse;whiteSpace=wrap;html=1;aspect=fixed;fillColor=none;" parent="1" vertex="1">
                    <mxGeometry x="520" y="380" width="140" height="140" as="geometry"/>
                </mxCell>
                <mxCell id="6" value="" style="shape=flexArrow;endArrow=classic;html=1;fontSize=22;" parent="1" edge="1">
                    <mxGeometry width="50" height="50" relative="1" as="geometry">
                        <mxPoint x="330" y="240" as="sourcePoint"/>
                        <mxPoint x="240" y="370" as="targetPoint"/>
                    </mxGeometry>
                </mxCell>
                <mxCell id="7" value="" style="shape=flexArrow;endArrow=classic;html=1;fontSize=22;" parent="1" edge="1">
                    <mxGeometry width="50" height="50" relative="1" as="geometry">
                        <mxPoint x="300" y="449.5" as="sourcePoint"/>
                        <mxPoint x="500" y="449.5" as="targetPoint"/>
                    </mxGeometry>
                </mxCell>
                <mxCell id="8" value="" style="shape=flexArrow;endArrow=classic;html=1;fontSize=22;" parent="1" edge="1">
                    <mxGeometry width="50" height="50" relative="1" as="geometry">
                        <mxPoint x="540" y="370" as="sourcePoint"/>
                        <mxPoint x="450" y="240" as="targetPoint"/>
                    </mxGeometry>
                </mxCell>
                <mxCell id="9" value="listen&lt;br&gt;thread&lt;br&gt;监听并接收数据" style="text;html=1;align=center;verticalAlign=middle;resizable=0;points=[];autosize=1;strokeColor=none;fillColor=none;fontSize=22;" parent="1" vertex="1">
                    <mxGeometry x="100" y="220" width="180" height="90" as="geometry"/>
                </mxCell>
                <mxCell id="10" value="server&lt;br&gt;thread&lt;br&gt;处理数据" style="text;html=1;align=center;verticalAlign=middle;resizable=0;points=[];autosize=1;strokeColor=none;fillColor=none;fontSize=22;" parent="1" vertex="1">
                    <mxGeometry x="340" y="470" width="110" height="90" as="geometry"/>
                </mxCell>
                <mxCell id="13" value="server&lt;br&gt;thread&lt;br&gt;处理数据后判断&lt;br&gt;(check_flags)&lt;br&gt;是否需要重新进行下发" style="text;html=1;align=center;verticalAlign=middle;resizable=0;points=[];autosize=1;strokeColor=none;fillColor=none;fontSize=22;" parent="1" vertex="1">
                    <mxGeometry x="510" y="195" width="240" height="150" as="geometry"/>
                </mxCell>
                <mxCell id="14" value="几个关键的指针和数据：&lt;br&gt;" style="text;html=1;align=center;verticalAlign=middle;resizable=0;points=[];autosize=1;strokeColor=none;fillColor=none;fontSize=22;" parent="1" vertex="1">
                    <mxGeometry x="45" y="600" width="270" height="40" as="geometry"/>
                </mxCell>
                <mxCell id="28" value="&lt;ul&gt;&lt;li&gt;post point: 记录每次state 3-&amp;gt;state 1的起始wr&lt;/li&gt;&lt;li&gt;post_value: 记录当前有多少个处于state 1的wr&amp;nbsp;&lt;/li&gt;&lt;li&gt;head point: 记录每次state 1-&amp;gt;state 2的起始wr&lt;/li&gt;&lt;li&gt;busy_value: 记录当前有多少个处于state 2的wr&lt;/li&gt;&lt;li&gt;tail point: 记录每次state 2-&amp;gt;state 3的起始wr&lt;/li&gt;&lt;li&gt;free_value: 记录当前有多少个处于state 3的wr&lt;br&gt;&lt;/li&gt;&lt;/ul&gt;" style="text;strokeColor=none;fillColor=none;html=1;whiteSpace=wrap;verticalAlign=middle;overflow=hidden;fontSize=22;" parent="1" vertex="1">
                    <mxGeometry x="40" y="620" width="600" height="230" as="geometry"/>
                </mxCell>
                <mxCell id="30" value="thread action to point and value" style="shape=table;childLayout=tableLayout;startSize=40;collapsible=0;recursiveResize=0;expand=0;fontStyle=1;fontSize=22;fillColor=none;" parent="1" vertex="1">
                    <mxGeometry x="110" y="910" width="630" height="560" as="geometry"/>
                </mxCell>
                <mxCell id="31" value="listen&#xa;thread" style="shape=tableRow;horizontal=0;startSize=80;swimlaneHead=0;swimlaneBody=0;top=0;left=0;bottom=0;right=0;dropTarget=0;fillColor=none;collapsible=0;recursiveResize=0;expand=0;fontStyle=1;fontSize=22;" parent="30" vertex="1">
                    <mxGeometry y="40" width="630" height="174" as="geometry"/>
                </mxCell>
                <mxCell id="32" value="Phase 1" style="swimlane;swimlaneHead=0;swimlaneBody=0;fontStyle=0;connectable=0;fillColor=none;startSize=40;collapsible=0;recursiveResize=0;expand=0;fontStyle=1;fontSize=22;" parent="31" vertex="1">
                    <mxGeometry x="80" width="182" height="174" as="geometry">
                        <mxRectangle width="182" height="174" as="alternateBounds"/>
                    </mxGeometry>
                </mxCell>
                <mxCell id="44" value="head++" style="text;html=1;align=center;verticalAlign=middle;resizable=0;points=[];autosize=1;strokeColor=none;fillColor=none;fontSize=22;" parent="32" vertex="1">
                    <mxGeometry x="41" y="90" width="100" height="40" as="geometry"/>
                </mxCell>
                <mxCell id="33" value="Phase 2" style="swimlane;swimlaneHead=0;swimlaneBody=0;fontStyle=0;connectable=0;fillColor=none;startSize=40;collapsible=0;recursiveResize=0;expand=0;fontStyle=1;fontSize=22;" parent="31" vertex="1">
                    <mxGeometry x="262" width="186" height="174" as="geometry">
                        <mxRectangle width="186" height="174" as="alternateBounds"/>
                    </mxGeometry>
                </mxCell>
                <mxCell id="45" value="busy_value++" style="text;html=1;align=center;verticalAlign=middle;resizable=0;points=[];autosize=1;strokeColor=none;fillColor=none;fontSize=22;" parent="33" vertex="1">
                    <mxGeometry x="13" y="85" width="160" height="40" as="geometry"/>
                </mxCell>
                <mxCell id="34" value="Phase 3" style="swimlane;swimlaneHead=0;swimlaneBody=0;fontStyle=0;connectable=0;fillColor=none;startSize=40;collapsible=0;recursiveResize=0;expand=0;fontStyle=1;fontSize=22;" parent="31" vertex="1">
                    <mxGeometry x="448" width="182" height="174" as="geometry">
                        <mxRectangle width="182" height="174" as="alternateBounds"/>
                    </mxGeometry>
                </mxCell>
                <mxCell id="46" value="&lt;span style=&quot;color: rgb(0, 0, 0);&quot;&gt;post_value--&lt;/span&gt;" style="text;html=1;align=center;verticalAlign=middle;resizable=0;points=[];autosize=1;strokeColor=none;fillColor=none;fontSize=22;" parent="34" vertex="1">
                    <mxGeometry x="20" y="85" width="140" height="40" as="geometry"/>
                </mxCell>
                <mxCell id="35" value="server &#xa;thread" style="shape=tableRow;horizontal=0;startSize=80;swimlaneHead=0;swimlaneBody=0;top=0;left=0;bottom=0;right=0;dropTarget=0;fillColor=none;collapsible=0;recursiveResize=0;expand=0;fontStyle=1;fontSize=22;" parent="30" vertex="1">
                    <mxGeometry y="214" width="630" height="172" as="geometry"/>
                </mxCell>
                <mxCell id="36" value="" style="swimlane;swimlaneHead=0;swimlaneBody=0;fontStyle=0;connectable=0;fillColor=none;startSize=0;collapsible=0;recursiveResize=0;expand=0;fontStyle=1;fontSize=22;" parent="35" vertex="1">
                    <mxGeometry x="80" width="182" height="172" as="geometry">
                        <mxRectangle width="182" height="172" as="alternateBounds"/>
                    </mxGeometry>
                </mxCell>
                <mxCell id="47" value="tail++" style="text;html=1;align=center;verticalAlign=middle;resizable=0;points=[];autosize=1;strokeColor=none;fillColor=none;fontSize=22;" parent="36" vertex="1">
                    <mxGeometry x="51" y="66" width="80" height="40" as="geometry"/>
                </mxCell>
                <mxCell id="37" value="=" style="swimlane;swimlaneHead=0;swimlaneBody=0;fontStyle=0;connectable=0;fillColor=none;startSize=0;collapsible=0;recursiveResize=0;expand=0;fontStyle=1;fontSize=22;" parent="35" vertex="1">
                    <mxGeometry x="262" width="186" height="172" as="geometry">
                        <mxRectangle width="186" height="172" as="alternateBounds"/>
                    </mxGeometry>
                </mxCell>
                <mxCell id="51" value="free_value++" style="text;html=1;align=center;verticalAlign=middle;resizable=0;points=[];autosize=1;strokeColor=none;fillColor=none;fontSize=22;" parent="37" vertex="1">
                    <mxGeometry x="13" y="66" width="150" height="40" as="geometry"/>
                </mxCell>
                <mxCell id="38" value="" style="swimlane;swimlaneHead=0;swimlaneBody=0;fontStyle=0;connectable=0;fillColor=none;startSize=0;collapsible=0;recursiveResize=0;expand=0;fontStyle=1;fontSize=22;" parent="35" vertex="1">
                    <mxGeometry x="448" width="182" height="172" as="geometry">
                        <mxRectangle width="182" height="172" as="alternateBounds"/>
                    </mxGeometry>
                </mxCell>
                <mxCell id="52" value="busy_value--" style="text;html=1;align=center;verticalAlign=middle;resizable=0;points=[];autosize=1;strokeColor=none;fillColor=none;fontSize=22;" parent="38" vertex="1">
                    <mxGeometry x="17" y="66" width="150" height="40" as="geometry"/>
                </mxCell>
                <mxCell id="39" value="server &#xa;thread&#xa;(check_flags)" style="shape=tableRow;horizontal=0;startSize=80;swimlaneHead=0;swimlaneBody=0;top=0;left=0;bottom=0;right=0;dropTarget=0;fillColor=none;collapsible=0;recursiveResize=0;expand=0;fontStyle=1;fontSize=22;" parent="30" vertex="1">
                    <mxGeometry y="386" width="630" height="174" as="geometry"/>
                </mxCell>
                <mxCell id="40" value="" style="swimlane;swimlaneHead=0;swimlaneBody=0;fontStyle=0;connectable=0;fillColor=none;startSize=0;collapsible=0;recursiveResize=0;expand=0;fontStyle=1;fontSize=22;" parent="39" vertex="1">
                    <mxGeometry x="80" width="182" height="174" as="geometry">
                        <mxRectangle width="182" height="174" as="alternateBounds"/>
                    </mxGeometry>
                </mxCell>
                <mxCell id="48" value="post += &lt;br&gt;BatchingSize" style="text;html=1;align=center;verticalAlign=middle;resizable=0;points=[];autosize=1;strokeColor=none;fillColor=none;fontSize=22;" parent="40" vertex="1">
                    <mxGeometry x="16" y="52" width="150" height="70" as="geometry"/>
                </mxCell>
                <mxCell id="41" value="" style="swimlane;swimlaneHead=0;swimlaneBody=0;fontStyle=0;connectable=0;fillColor=none;startSize=0;collapsible=0;recursiveResize=0;expand=0;fontStyle=1;fontSize=22;" parent="39" vertex="1">
                    <mxGeometry x="262" width="186" height="174" as="geometry">
                        <mxRectangle width="186" height="174" as="alternateBounds"/>
                    </mxGeometry>
                </mxCell>
                <mxCell id="49" value="post_value &lt;br&gt;+= BatchingSize" style="text;html=1;align=center;verticalAlign=middle;resizable=0;points=[];autosize=1;strokeColor=none;fillColor=none;fontSize=22;" parent="41" vertex="1">
                    <mxGeometry x="3" y="52" width="180" height="70" as="geometry"/>
                </mxCell>
                <mxCell id="42" value="" style="swimlane;swimlaneHead=0;swimlaneBody=0;fontStyle=0;connectable=0;fillColor=none;startSize=0;collapsible=0;recursiveResize=0;expand=0;fontStyle=1;fontSize=22;" parent="39" vertex="1">
                    <mxGeometry x="448" width="182" height="174" as="geometry">
                        <mxRectangle width="182" height="174" as="alternateBounds"/>
                    </mxGeometry>
                </mxCell>
                <mxCell id="50" value="free_value &lt;br&gt;-= BatchingSize" style="text;html=1;align=center;verticalAlign=middle;resizable=0;points=[];autosize=1;strokeColor=none;fillColor=none;fontSize=22;" parent="42" vertex="1">
                    <mxGeometry y="52" width="180" height="70" as="geometry"/>
                </mxCell>
            </root>
        </mxGraphModel>
    </diagram>
</mxfile>